<mxfile host="app.diagrams.net" modified="2023-02-05T23:55:57.609Z" agent="5.0 (Macintosh; Intel Mac OS X 10_15_7) AppleWebKit/537.36 (KHTML, like Gecko) Chrome/107.0.0.0 Safari/537.36" etag="Ep_jdVNBahZzjQ54tu7b" version="20.8.16" type="github">
  <diagram name="Page-1" id="AnoePxTIOQKLr5Kwa5SI">
    <mxGraphModel dx="954" dy="648" grid="1" gridSize="10" guides="1" tooltips="1" connect="1" arrows="1" fold="1" page="1" pageScale="1" pageWidth="850" pageHeight="1100" math="0" shadow="0">
      <root>
        <mxCell id="0" />
        <mxCell id="1" parent="0" />
        <mxCell id="11XDbmqjEb_BHr2lCcQS-12" value="" style="rounded=0;whiteSpace=wrap;html=1;" vertex="1" parent="1">
          <mxGeometry x="70" y="450" width="780" height="410" as="geometry" />
        </mxCell>
        <mxCell id="11XDbmqjEb_BHr2lCcQS-21" value="" style="whiteSpace=wrap;html=1;aspect=fixed;" vertex="1" parent="1">
          <mxGeometry x="150" y="490" width="180" height="180" as="geometry" />
        </mxCell>
        <mxCell id="11XDbmqjEb_BHr2lCcQS-22" value="" style="whiteSpace=wrap;html=1;aspect=fixed;" vertex="1" parent="1">
          <mxGeometry x="370" y="490" width="180" height="180" as="geometry" />
        </mxCell>
        <mxCell id="11XDbmqjEb_BHr2lCcQS-23" value="" style="whiteSpace=wrap;html=1;aspect=fixed;" vertex="1" parent="1">
          <mxGeometry x="590" y="490" width="180" height="180" as="geometry" />
        </mxCell>
        <mxCell id="11XDbmqjEb_BHr2lCcQS-24" value="EC2 #3" style="rounded=1;whiteSpace=wrap;html=1;" vertex="1" parent="1">
          <mxGeometry x="620" y="550" width="120" height="60" as="geometry" />
        </mxCell>
        <mxCell id="11XDbmqjEb_BHr2lCcQS-25" value="EC2 #2" style="rounded=1;whiteSpace=wrap;html=1;" vertex="1" parent="1">
          <mxGeometry x="400" y="550" width="120" height="60" as="geometry" />
        </mxCell>
        <mxCell id="11XDbmqjEb_BHr2lCcQS-26" value="EC2 #1" style="rounded=1;whiteSpace=wrap;html=1;" vertex="1" parent="1">
          <mxGeometry x="180" y="550" width="120" height="60" as="geometry" />
        </mxCell>
        <mxCell id="11XDbmqjEb_BHr2lCcQS-27" value="Subnet #1" style="text;html=1;align=center;verticalAlign=middle;resizable=0;points=[];autosize=1;strokeColor=none;fillColor=none;" vertex="1" parent="1">
          <mxGeometry x="250" y="490" width="80" height="30" as="geometry" />
        </mxCell>
        <mxCell id="11XDbmqjEb_BHr2lCcQS-28" value="Subnet #2" style="text;html=1;align=center;verticalAlign=middle;resizable=0;points=[];autosize=1;strokeColor=none;fillColor=none;" vertex="1" parent="1">
          <mxGeometry x="470" y="490" width="80" height="30" as="geometry" />
        </mxCell>
        <mxCell id="11XDbmqjEb_BHr2lCcQS-29" value="&lt;span style=&quot;color: rgb(0, 0, 0); font-family: Helvetica; font-size: 12px; font-style: normal; font-variant-ligatures: normal; font-variant-caps: normal; font-weight: 400; letter-spacing: normal; orphans: 2; text-align: center; text-indent: 0px; text-transform: none; widows: 2; word-spacing: 0px; -webkit-text-stroke-width: 0px; background-color: rgb(251, 251, 251); text-decoration-thickness: initial; text-decoration-style: initial; text-decoration-color: initial; float: none; display: inline !important;&quot;&gt;Subnet #3&lt;/span&gt;" style="text;whiteSpace=wrap;html=1;" vertex="1" parent="1">
          <mxGeometry x="705" y="490" width="90" height="40" as="geometry" />
        </mxCell>
        <mxCell id="11XDbmqjEb_BHr2lCcQS-30" value="development -VPC" style="text;html=1;strokeColor=none;fillColor=none;align=center;verticalAlign=middle;whiteSpace=wrap;rounded=0;" vertex="1" parent="1">
          <mxGeometry x="780" y="460" width="60" height="30" as="geometry" />
        </mxCell>
        <mxCell id="11XDbmqjEb_BHr2lCcQS-31" value="development-security-group" style="rounded=1;whiteSpace=wrap;html=1;" vertex="1" parent="1">
          <mxGeometry x="620" y="770" width="120" height="60" as="geometry" />
        </mxCell>
        <mxCell id="11XDbmqjEb_BHr2lCcQS-32" value="" style="endArrow=none;dashed=1;html=1;rounded=0;" edge="1" parent="1" source="11XDbmqjEb_BHr2lCcQS-31">
          <mxGeometry width="50" height="50" relative="1" as="geometry">
            <mxPoint x="410" y="660" as="sourcePoint" />
            <mxPoint x="460" y="610" as="targetPoint" />
          </mxGeometry>
        </mxCell>
        <mxCell id="11XDbmqjEb_BHr2lCcQS-33" value="" style="endArrow=none;dashed=1;html=1;rounded=0;" edge="1" parent="1" source="11XDbmqjEb_BHr2lCcQS-31" target="11XDbmqjEb_BHr2lCcQS-24">
          <mxGeometry width="50" height="50" relative="1" as="geometry">
            <mxPoint x="470" y="710" as="sourcePoint" />
            <mxPoint x="470" y="620" as="targetPoint" />
          </mxGeometry>
        </mxCell>
        <mxCell id="11XDbmqjEb_BHr2lCcQS-35" value="" style="endArrow=none;dashed=1;html=1;rounded=0;entryX=0.5;entryY=1;entryDx=0;entryDy=0;" edge="1" parent="1" source="11XDbmqjEb_BHr2lCcQS-31" target="11XDbmqjEb_BHr2lCcQS-26">
          <mxGeometry width="50" height="50" relative="1" as="geometry">
            <mxPoint x="480" y="720" as="sourcePoint" />
            <mxPoint x="600" y="645.7142857142858" as="targetPoint" />
          </mxGeometry>
        </mxCell>
        <mxCell id="11XDbmqjEb_BHr2lCcQS-37" value="IGW" style="rounded=1;whiteSpace=wrap;html=1;" vertex="1" parent="1">
          <mxGeometry x="180" y="770" width="120" height="60" as="geometry" />
        </mxCell>
        <mxCell id="11XDbmqjEb_BHr2lCcQS-38" value="" style="endArrow=none;dashed=1;html=1;rounded=0;" edge="1" parent="1" source="11XDbmqjEb_BHr2lCcQS-37" target="11XDbmqjEb_BHr2lCcQS-21">
          <mxGeometry width="50" height="50" relative="1" as="geometry">
            <mxPoint x="433.33333333333326" y="740" as="sourcePoint" />
            <mxPoint x="340" y="663.6363636363637" as="targetPoint" />
          </mxGeometry>
        </mxCell>
        <mxCell id="11XDbmqjEb_BHr2lCcQS-39" value="" style="endArrow=none;dashed=1;html=1;rounded=0;" edge="1" parent="1" source="11XDbmqjEb_BHr2lCcQS-37" target="11XDbmqjEb_BHr2lCcQS-22">
          <mxGeometry width="50" height="50" relative="1" as="geometry">
            <mxPoint x="250" y="740" as="sourcePoint" />
            <mxPoint x="460" y="660" as="targetPoint" />
          </mxGeometry>
        </mxCell>
        <mxCell id="11XDbmqjEb_BHr2lCcQS-40" value="" style="endArrow=none;dashed=1;html=1;rounded=0;" edge="1" parent="1" source="11XDbmqjEb_BHr2lCcQS-37" target="11XDbmqjEb_BHr2lCcQS-23">
          <mxGeometry width="50" height="50" relative="1" as="geometry">
            <mxPoint x="310" y="742.7272727272727" as="sourcePoint" />
            <mxPoint x="470" y="670" as="targetPoint" />
          </mxGeometry>
        </mxCell>
      </root>
    </mxGraphModel>
  </diagram>
</mxfile>
